STARTFONT 2.1
FONT -Monotype-Century Schoolbook-Regular-R-Normal--17-120-100-100-P-81-iso8859-4
SIZE 12 100 100
FONTBOUNDINGBOX 19 20 -2 -4

STARTPROPERTIES 24
FOUNDRY "Monotype"
FAMILY_NAME "Century Schoolbook"
WEIGHT_NAME "Regular"
SLANT "R"
SETWIDTH_NAME "Normal"
ADD_STYLE_NAME ""
PIXEL_SIZE 17
POINT_SIZE 120
RESOLUTION_X 100
RESOLUTION_Y 100
SPACING "P"
AVERAGE_WIDTH 81
CHARSET_REGISTRY "iso8859"
CHARSET_ENCODING "4"
FACE_NAME "Century Schoolbook ISO Latin4"
_DEC_DEVICE_FONTNAMES "PS=centuryschoolbook-lat4"
COPYRIGHT "Copyright (c) 1994 Monotype Typography Ltd."
CAP_HEIGHT 15
X_HEIGHT 10
WEIGHT 10
QUAD_WIDTH 10
DEFAULT_CHAR 160
FONT_DESCENT 4
FONT_ASCENT 18
ENDPROPERTIES

CHARS 191

STARTCHAR space
ENCODING 32
SWIDTH 278 0
DWIDTH 5 0
BBX 0 0 0 0
BITMAP
ENDCHAR

STARTCHAR exclam
ENCODING 33
SWIDTH 296 0
DWIDTH 5 0
BBX 2 12 1 0
BITMAP
C0
C0
C0
C0
C0
C0
40
40
00
00
C0
C0
ENDCHAR

STARTCHAR quotedbl
ENCODING 34
SWIDTH 389 0
DWIDTH 7 0
BBX 5 5 1 7
BITMAP
D8
D8
D8
48
48
ENDCHAR

STARTCHAR numbersign
ENCODING 35
SWIDTH 556 0
DWIDTH 9 0
BBX 9 12 0 0
BITMAP
1100
1100
1100
7F80
2200
2200
2200
FF00
4400
4400
4400
4400
ENDCHAR

STARTCHAR dollar
ENCODING 36
SWIDTH 556 0
DWIDTH 9 0
BBX 7 16 1 -2
BITMAP
10
10
3C
56
D6
D4
F0
70
38
1C
5E
D6
94
78
10
10
ENDCHAR

STARTCHAR percent
ENCODING 37
SWIDTH 833 0
DWIDTH 14 0
BBX 13 12 1 0
BITMAP
7020
D840
88C0
8880
8900
DA70
76D8
0488
0888
1088
30D8
2070
ENDCHAR

STARTCHAR ampersand
ENCODING 38
SWIDTH 815 0
DWIDTH 14 0
BBX 12 12 1 0
BITMAP
0E00
1B00
1B00
1B00
0E00
1CF0
3C60
6640
C6C0
C380
6390
3CE0
ENDCHAR

STARTCHAR quoteright
ENCODING 39
SWIDTH 204 0
DWIDTH 3 0
BBX 2 4 0 8
BITMAP
C0
C0
40
80
ENDCHAR

STARTCHAR parenleft
ENCODING 40
SWIDTH 333 0
DWIDTH 6 0
BBX 5 15 1 -3
BITMAP
08
10
20
60
60
C0
C0
C0
C0
C0
60
60
20
10
08
ENDCHAR

STARTCHAR parenright
ENCODING 41
SWIDTH 333 0
DWIDTH 6 0
BBX 5 15 0 -3
BITMAP
80
40
20
30
30
18
18
18
18
18
30
30
20
40
80
ENDCHAR

STARTCHAR asterisk
ENCODING 42
SWIDTH 500 0
DWIDTH 9 0
BBX 6 7 1 5
BITMAP
20
30
DC
68
30
48
48
ENDCHAR

STARTCHAR plus
ENCODING 43
SWIDTH 606 0
DWIDTH 10 0
BBX 9 9 1 1
BITMAP
0800
0800
0800
0800
FF80
0800
0800
0800
0800
ENDCHAR

STARTCHAR comma
ENCODING 44
SWIDTH 278 0
DWIDTH 5 0
BBX 3 5 0 -3
BITMAP
60
60
20
40
80
ENDCHAR

STARTCHAR minus
ENCODING 45
SWIDTH 606 0
DWIDTH 10 0
BBX 9 1 1 5
BITMAP
FF80
ENDCHAR

STARTCHAR period
ENCODING 46
SWIDTH 278 0
DWIDTH 5 0
BBX 2 2 1 0
BITMAP
C0
C0
ENDCHAR

STARTCHAR slash
ENCODING 47
SWIDTH 278 0
DWIDTH 5 0
BBX 5 13 0 0
BITMAP
08
08
18
10
10
30
20
20
60
40
40
C0
80
ENDCHAR

STARTCHAR zero
ENCODING 48
SWIDTH 556 0
DWIDTH 9 0
BBX 8 12 1 0
BITMAP
18
66
42
C3
C3
C3
C3
C3
C3
42
66
18
ENDCHAR

STARTCHAR one
ENCODING 49
SWIDTH 556 0
DWIDTH 9 0
BBX 6 12 2 0
BITMAP
10
F0
30
30
30
30
30
30
30
30
30
FC
ENDCHAR

STARTCHAR two
ENCODING 50
SWIDTH 556 0
DWIDTH 9 0
BBX 7 12 1 0
BITMAP
38
44
86
C6
46
0C
08
10
20
42
FE
FC
ENDCHAR

STARTCHAR three
ENCODING 51
SWIDTH 556 0
DWIDTH 9 0
BBX 7 12 1 0
BITMAP
78
84
C6
46
04
38
04
06
46
C6
84
78
ENDCHAR

STARTCHAR four
ENCODING 52
SWIDTH 556 0
DWIDTH 9 0
BBX 8 12 1 0
BITMAP
04
0C
0C
1C
2C
2C
4C
8C
FF
0C
0C
3F
ENDCHAR

STARTCHAR five
ENCODING 53
SWIDTH 556 0
DWIDTH 9 0
BBX 7 12 1 0
BITMAP
7E
7C
40
40
F8
8C
06
06
46
C6
8C
78
ENDCHAR

STARTCHAR six
ENCODING 54
SWIDTH 556 0
DWIDTH 9 0
BBX 8 12 1 0
BITMAP
1E
63
62
C0
C0
DC
E6
C3
C3
C3
66
3C
ENDCHAR

STARTCHAR seven
ENCODING 55
SWIDTH 556 0
DWIDTH 9 0
BBX 8 12 1 0
BITMAP
7F
FF
83
03
06
06
0C
0C
0C
18
18
18
ENDCHAR

STARTCHAR eight
ENCODING 56
SWIDTH 556 0
DWIDTH 9 0
BBX 8 12 1 0
BITMAP
3C
62
C1
E1
72
3C
4E
87
83
83
42
3C
ENDCHAR

STARTCHAR nine
ENCODING 57
SWIDTH 556 0
DWIDTH 9 0
BBX 8 12 1 0
BITMAP
3C
66
C3
C3
C3
67
3B
03
03
46
C6
78
ENDCHAR

STARTCHAR colon
ENCODING 58
SWIDTH 278 0
DWIDTH 5 0
BBX 2 8 1 0
BITMAP
C0
C0
00
00
00
00
C0
C0
ENDCHAR

STARTCHAR semicolon
ENCODING 59
SWIDTH 278 0
DWIDTH 5 0
BBX 2 10 1 -2
BITMAP
C0
C0
00
00
00
00
C0
C0
40
80
ENDCHAR

STARTCHAR less
ENCODING 60
SWIDTH 606 0
DWIDTH 10 0
BBX 9 7 1 2
BITMAP
0180
0600
3800
C000
3800
0600
0180
ENDCHAR

STARTCHAR equal
ENCODING 61
SWIDTH 606 0
DWIDTH 10 0
BBX 9 3 1 4
BITMAP
FF80
0000
FF80
ENDCHAR

STARTCHAR greater
ENCODING 62
SWIDTH 606 0
DWIDTH 10 0
BBX 9 7 1 2
BITMAP
C000
3000
0E00
0180
0E00
3000
C000
ENDCHAR

STARTCHAR question
ENCODING 63
SWIDTH 444 0
DWIDTH 8 0
BBX 7 12 0 0
BITMAP
78
8C
C6
46
06
0C
08
10
10
00
30
30
ENDCHAR

STARTCHAR at
ENCODING 64
SWIDTH 737 0
DWIDTH 13 0
BBX 12 13 1 0
BITMAP
0F00
30C0
4020
43A0
8490
8890
9990
9920
9F60
4980
4020
30C0
0F00
ENDCHAR

STARTCHAR A
ENCODING 65
SWIDTH 722 0
DWIDTH 12 0
BBX 12 12 0 0
BITMAP
0200
0700
0700
0B00
0980
1180
1180
3FC0
20C0
4060
4060
E0F0
ENDCHAR

STARTCHAR B
ENCODING 66
SWIDTH 722 0
DWIDTH 12 0
BBX 10 12 1 0
BITMAP
FE00
6300
6180
6180
6300
7F00
6180
60C0
60C0
60C0
6180
FF00
ENDCHAR

STARTCHAR C
ENCODING 67
SWIDTH 722 0
DWIDTH 12 0
BBX 10 12 1 0
BITMAP
0F40
30C0
60C0
6040
C040
C000
C000
C000
6040
6040
3080
0F00
ENDCHAR

STARTCHAR D
ENCODING 68
SWIDTH 778 0
DWIDTH 13 0
BBX 11 12 1 0
BITMAP
FE00
6180
60C0
60C0
6060
6060
6060
6060
60C0
60C0
6180
FE00
ENDCHAR

STARTCHAR E
ENCODING 69
SWIDTH 722 0
DWIDTH 12 0
BBX 10 12 1 0
BITMAP
FFC0
60C0
6040
6440
6400
7C00
6400
6400
6040
6040
60C0
FFC0
ENDCHAR

STARTCHAR F
ENCODING 70
SWIDTH 667 0
DWIDTH 11 0
BBX 9 12 1 0
BITMAP
FF80
6180
6080
6480
6400
7C00
6400
6400
6000
6000
6000
F000
ENDCHAR

STARTCHAR G
ENCODING 71
SWIDTH 778 0
DWIDTH 13 0
BBX 11 12 1 0
BITMAP
0F40
30C0
6040
6040
C000
C000
C3E0
C0C0
60C0
60C0
3140
0E40
ENDCHAR

STARTCHAR H
ENCODING 72
SWIDTH 833 0
DWIDTH 14 0
BBX 12 12 1 0
BITMAP
F0F0
6060
6060
6060
6060
7FE0
6060
6060
6060
6060
6060
F0F0
ENDCHAR

STARTCHAR I
ENCODING 73
SWIDTH 407 0
DWIDTH 6 0
BBX 4 12 1 0
BITMAP
F0
60
60
60
60
60
60
60
60
60
60
F0
ENDCHAR

STARTCHAR J
ENCODING 74
SWIDTH 556 0
DWIDTH 9 0
BBX 8 12 0 0
BITMAP
0F
06
06
06
06
06
06
46
C6
86
4C
38
ENDCHAR

STARTCHAR K
ENCODING 75
SWIDTH 778 0
DWIDTH 13 0
BBX 11 12 1 0
BITMAP
F1E0
6080
6100
6200
6400
6800
7C00
7600
6300
6300
6180
F3E0
ENDCHAR

STARTCHAR L
ENCODING 76
SWIDTH 667 0
DWIDTH 11 0
BBX 10 12 1 0
BITMAP
F000
6000
6000
6000
6000
6000
6000
6000
6040
6040
60C0
FFC0
ENDCHAR

STARTCHAR M
ENCODING 77
SWIDTH 944 0
DWIDTH 16 0
BBX 14 12 1 0
BITMAP
F03C
7038
5858
5858
5858
4C98
4C98
4C98
4718
4718
4218
E23C
ENDCHAR

STARTCHAR N
ENCODING 78
SWIDTH 815 0
DWIDTH 14 0
BBX 12 12 1 0
BITMAP
E070
7020
5820
5820
4C20
4620
4620
4320
41A0
41A0
40E0
E060
ENDCHAR

STARTCHAR O
ENCODING 79
SWIDTH 778 0
DWIDTH 13 0
BBX 11 12 1 0
BITMAP
0E00
3180
60C0
60C0
C060
C060
C060
C060
60C0
60C0
3180
0E00
ENDCHAR

STARTCHAR P
ENCODING 80
SWIDTH 667 0
DWIDTH 11 0
BBX 9 12 1 0
BITMAP
FE00
6100
6180
6180
6180
6100
7E00
6000
6000
6000
6000
F000
ENDCHAR

STARTCHAR Q
ENCODING 81
SWIDTH 778 0
DWIDTH 13 0
BBX 11 15 1 -3
BITMAP
0E00
3180
60C0
60C0
C060
C060
C060
CE60
71C0
71C0
3180
0F80
01A0
01A0
00C0
ENDCHAR

STARTCHAR R
ENCODING 82
SWIDTH 722 0
DWIDTH 12 0
BBX 10 12 1 0
BITMAP
FE00
6300
6180
6180
6300
7E00
6600
6300
6300
6340
6340
F180
ENDCHAR

STARTCHAR S
ENCODING 83
SWIDTH 630 0
DWIDTH 11 0
BBX 9 12 1 0
BITMAP
3C80
4380
C180
C080
F080
7C00
1F00
8780
8180
C180
E100
9E00
ENDCHAR

STARTCHAR T
ENCODING 84
SWIDTH 667 0
DWIDTH 12 0
BBX 10 12 1 0
BITMAP
7F80
CCC0
8C40
8C40
8C40
0C00
0C00
0C00
0C00
0C00
0C00
1E00
ENDCHAR

STARTCHAR U
ENCODING 85
SWIDTH 815 0
DWIDTH 14 0
BBX 12 12 1 0
BITMAP
F070
6020
6020
6020
6020
6020
6020
6020
6020
6020
3040
1F80
ENDCHAR

STARTCHAR V
ENCODING 86
SWIDTH 722 0
DWIDTH 12 0
BBX 12 12 0 0
BITMAP
F070
6020
6020
3040
3040
1880
1880
0C80
0D00
0D00
0600
0600
ENDCHAR

STARTCHAR W
ENCODING 87
SWIDTH 981 0
DWIDTH 16 0
BBX 16 12 0 0
BITMAP
F3C7
6182
6182
6184
30C4
31C4
31C4
1968
1A68
1A68
0C30
0C30
ENDCHAR

STARTCHAR X
ENCODING 88
SWIDTH 704 0
DWIDTH 11 0
BBX 11 12 0 0
BITMAP
F0E0
6040
3080
1900
1E00
0E00
0E00
0B00
1380
2180
40C0
E1E0
ENDCHAR

STARTCHAR Y
ENCODING 89
SWIDTH 704 0
DWIDTH 12 0
BBX 12 12 0 0
BITMAP
F070
6020
3040
3040
1880
0D00
0D00
0600
0600
0600
0600
0F00
ENDCHAR

STARTCHAR Z
ENCODING 90
SWIDTH 611 0
DWIDTH 11 0
BBX 9 12 1 0
BITMAP
FF80
C180
8300
8600
0600
0C00
1800
1800
3080
6080
6180
FF80
ENDCHAR

STARTCHAR bracketleft
ENCODING 91
SWIDTH 333 0
DWIDTH 6 0
BBX 3 15 2 -3
BITMAP
E0
C0
C0
C0
C0
C0
C0
C0
C0
C0
C0
C0
C0
C0
E0
ENDCHAR

STARTCHAR backslash
ENCODING 92
SWIDTH 606 0
DWIDTH 10 0
BBX 9 13 0 0
BITMAP
8000
4000
6000
2000
1000
1800
0800
0400
0600
0200
0100
0180
0080
ENDCHAR

STARTCHAR bracketright
ENCODING 93
SWIDTH 333 0
DWIDTH 6 0
BBX 3 15 1 -3
BITMAP
E0
60
60
60
60
60
60
60
60
60
60
60
60
60
E0
ENDCHAR

STARTCHAR asciicircum
ENCODING 94
SWIDTH 606 0
DWIDTH 10 0
BBX 8 6 1 6
BITMAP
08
18
14
24
42
C3
ENDCHAR

STARTCHAR underscore
ENCODING 95
SWIDTH 500 0
DWIDTH 9 0
BBX 9 1 0 -2
BITMAP
FF80
ENDCHAR

STARTCHAR quoteleft
ENCODING 96
SWIDTH 204 0
DWIDTH 3 0
BBX 3 5 1 7
BITMAP
20
40
80
C0
C0
ENDCHAR

STARTCHAR a
ENCODING 97
SWIDTH 556 0
DWIDTH 9 0
BBX 8 8 0 0
BITMAP
7C
C6
46
3E
46
C6
C6
7B
ENDCHAR

STARTCHAR b
ENCODING 98
SWIDTH 556 0
DWIDTH 9 0
BBX 8 12 0 0
BITMAP
E0
60
60
60
6C
76
63
63
63
63
76
4C
ENDCHAR

STARTCHAR c
ENCODING 99
SWIDTH 444 0
DWIDTH 8 0
BBX 7 8 0 0
BITMAP
3C
66
C4
C0
C0
C2
62
3C
ENDCHAR

STARTCHAR d
ENCODING 100
SWIDTH 574 0
DWIDTH 10 0
BBX 9 12 0 0
BITMAP
0700
0300
0300
0300
3B00
6700
C300
C300
C300
C300
6700
3980
ENDCHAR

STARTCHAR e
ENCODING 101
SWIDTH 500 0
DWIDTH 9 0
BBX 8 8 0 0
BITMAP
3C
62
C3
FF
C0
C0
61
3E
ENDCHAR

STARTCHAR f
ENCODING 102
SWIDTH 333 0
DWIDTH 5 0
BBX 6 12 0 0
BITMAP
38
6C
68
60
F0
60
60
60
60
60
60
F0
ENDCHAR

STARTCHAR g
ENCODING 103
SWIDTH 537 0
DWIDTH 9 0
BBX 8 11 1 -3
BITMAP
7B
CD
CC
CC
CC
78
80
7C
FE
86
7C
ENDCHAR

STARTCHAR h
ENCODING 104
SWIDTH 611 0
DWIDTH 10 0
BBX 9 12 0 0
BITMAP
E000
6000
6000
6000
6E00
7300
6300
6300
6300
6300
6300
F780
ENDCHAR

STARTCHAR i
ENCODING 105
SWIDTH 315 0
DWIDTH 5 0
BBX 4 12 0 0
BITMAP
60
60
00
00
E0
60
60
60
60
60
60
F0
ENDCHAR

STARTCHAR j
ENCODING 106
SWIDTH 296 0
DWIDTH 5 0
BBX 4 15 -1 -3
BITMAP
30
30
00
00
70
30
30
30
30
30
30
30
B0
B0
60
ENDCHAR

STARTCHAR k
ENCODING 107
SWIDTH 593 0
DWIDTH 10 0
BBX 10 12 0 0
BITMAP
E000
6000
6000
6000
6780
6200
6400
6C00
7C00
6600
6300
F7C0
ENDCHAR

STARTCHAR l
ENCODING 108
SWIDTH 315 0
DWIDTH 5 0
BBX 4 12 0 0
BITMAP
E0
60
60
60
60
60
60
60
60
60
60
F0
ENDCHAR

STARTCHAR m
ENCODING 109
SWIDTH 889 0
DWIDTH 15 0
BBX 14 8 0 0
BITMAP
EEF0
7318
6318
6318
6318
6318
6318
F7BC
ENDCHAR

STARTCHAR n
ENCODING 110
SWIDTH 611 0
DWIDTH 10 0
BBX 9 8 0 0
BITMAP
EE00
7300
6300
6300
6300
6300
6300
F780
ENDCHAR

STARTCHAR o
ENCODING 111
SWIDTH 500 0
DWIDTH 9 0
BBX 8 8 0 0
BITMAP
3C
66
C3
C3
C3
C3
66
3C
ENDCHAR

STARTCHAR p
ENCODING 112
SWIDTH 574 0
DWIDTH 10 0
BBX 9 11 0 -3
BITMAP
EE00
7300
6180
6180
6180
6180
7300
6E00
6000
6000
F000
ENDCHAR

STARTCHAR q
ENCODING 113
SWIDTH 556 0
DWIDTH 9 0
BBX 8 11 0 -3
BITMAP
37
6E
C6
C6
C6
C6
6E
36
06
06
0F
ENDCHAR

STARTCHAR r
ENCODING 114
SWIDTH 444 0
DWIDTH 7 0
BBX 7 8 0 0
BITMAP
EE
74
60
60
60
60
60
F0
ENDCHAR

STARTCHAR s
ENCODING 115
SWIDTH 463 0
DWIDTH 7 0
BBX 6 8 0 0
BITMAP
74
CC
C4
70
38
8C
CC
B8
ENDCHAR

STARTCHAR t
ENCODING 116
SWIDTH 389 0
DWIDTH 7 0
BBX 6 12 0 0
BITMAP
20
60
60
60
F8
60
60
60
60
64
64
38
ENDCHAR

STARTCHAR u
ENCODING 117
SWIDTH 611 0
DWIDTH 10 0
BBX 9 8 0 0
BITMAP
E700
6300
6300
6300
6300
6300
6700
3B80
ENDCHAR

STARTCHAR v
ENCODING 118
SWIDTH 537 0
DWIDTH 8 0
BBX 9 8 -1 0
BITMAP
F780
6300
6200
3400
3400
1800
1800
0800
ENDCHAR

STARTCHAR w
ENCODING 119
SWIDTH 778 0
DWIDTH 12 0
BBX 13 8 -1 0
BITMAP
F738
6210
3310
3520
15A0
18C0
0840
0840
ENDCHAR

STARTCHAR x
ENCODING 120
SWIDTH 537 0
DWIDTH 9 0
BBX 8 8 0 0
BITMAP
F7
62
34
18
18
2C
46
EF
ENDCHAR

STARTCHAR y
ENCODING 121
SWIDTH 537 0
DWIDTH 9 0
BBX 9 11 0 -3
BITMAP
F380
6100
3100
3200
1A00
1C00
0C00
0800
0800
5000
6000
ENDCHAR

STARTCHAR z
ENCODING 122
SWIDTH 481 0
DWIDTH 8 0
BBX 7 8 0 0
BITMAP
FE
86
8C
18
30
62
C2
FE
ENDCHAR

STARTCHAR braceleft
ENCODING 123
SWIDTH 333 0
DWIDTH 6 0
BBX 5 15 1 -3
BITMAP
18
20
60
60
60
20
60
80
60
20
60
60
60
20
18
ENDCHAR

STARTCHAR bar
ENCODING 124
SWIDTH 606 0
DWIDTH 10 0
BBX 2 15 4 -3
BITMAP
C0
C0
C0
C0
C0
C0
C0
C0
C0
C0
C0
C0
C0
C0
C0
ENDCHAR

STARTCHAR braceright
ENCODING 125
SWIDTH 333 0
DWIDTH 6 0
BBX 5 15 0 -3
BITMAP
C0
20
30
30
30
20
30
08
30
20
30
30
30
20
C0
ENDCHAR

STARTCHAR asciitilde
ENCODING 126
SWIDTH 606 0
DWIDTH 10 0
BBX 9 3 1 4
BITMAP
7880
9C80
8F00
ENDCHAR

STARTCHAR space
ENCODING 160
SWIDTH 278 0
DWIDTH 6 0
BBX 0 0 0 0
BITMAP
ENDCHAR

STARTCHAR Aogonek
ENCODING 161
SWIDTH 722 0
DWIDTH 12 0
BBX 13 14 0 -2
BITMAP
0200
0700
0700
0B00
0980
1180
1180
3FC0
20C0
4060
4060
E0F0
0060
0038
ENDCHAR

STARTCHAR afii240
ENCODING 162
SWIDTH 500 0
DWIDTH 9 0
BBX 8 8 1 0
BITMAP
EF
44
48
70
58
4C
46
EF
ENDCHAR

STARTCHAR Rcommaaccent
ENCODING 163
SWIDTH 722 0
DWIDTH 12 0
BBX 10 16 1 -4
BITMAP
FE00
6300
6180
6180
6300
7E00
6600
6300
6300
6340
6340
F180
0000
0C00
0C00
1800
ENDCHAR

STARTCHAR currency
ENCODING 164
SWIDTH 606 0
DWIDTH 10 0
BBX 8 8 1 2
BITMAP
BD
66
C3
81
81
C3
66
BD
ENDCHAR

STARTCHAR Itilde
ENCODING 165
SWIDTH 407 0
DWIDTH 6 0
BBX 5 15 1 0
BITMAP
68
B0
00
F0
60
60
60
60
60
60
60
60
60
60
F0
ENDCHAR

STARTCHAR Lcommaaccent
ENCODING 166
SWIDTH 667 0
DWIDTH 11 0
BBX 10 16 1 -4
BITMAP
F000
6000
6000
6000
6000
6000
6000
6000
6040
6040
60C0
FFC0
0000
1800
1800
3000
ENDCHAR

STARTCHAR section
ENCODING 167
SWIDTH 500 0
DWIDTH 9 0
BBX 6 15 1 -3
BITMAP
70
98
98
C0
60
F0
98
CC
64
3C
18
0C
64
64
38
ENDCHAR

STARTCHAR hungarumlaut
ENCODING 168
SWIDTH 333 0
DWIDTH 6 0
BBX 9 2 -1 9
BITMAP
3180
C600
ENDCHAR

STARTCHAR Scaron
ENCODING 169
SWIDTH 630 0
DWIDTH 11 0
BBX 9 16 1 0
BITMAP
2200
1C00
0800
0000
3C80
4380
C180
C080
F080
7C00
1F00
8780
8180
C180
E100
9E00
ENDCHAR

STARTCHAR Emacron
ENCODING 170
SWIDTH 722 0
DWIDTH 12 0
BBX 10 14 1 0
BITMAP
3F00
0000
FFC0
60C0
6040
6440
6400
7C00
6400
6400
6040
6040
60C0
FFC0
ENDCHAR

STARTCHAR Gcommaaccent
ENCODING 171
SWIDTH 778 0
DWIDTH 13 0
BBX 11 16 1 -4
BITMAP
0F40
30C0
6040
6040
C000
C000
C3E0
C0C0
60C0
60C0
3140
0E40
0000
0600
0600
0C00
ENDCHAR

STARTCHAR afii237
ENCODING 172
SWIDTH 611 0
DWIDTH 12 0
BBX 10 12 1 0
BITMAP
7F80
CCC0
8C40
8C40
8C40
0C00
7F80
0C00
0C00
0C00
0C00
1E00
ENDCHAR

STARTCHAR hyphen
ENCODING 173
SWIDTH 333 0
DWIDTH 6 0
BBX 3 1 1 3
BITMAP
E0
ENDCHAR

STARTCHAR Zcaron
ENCODING 174
SWIDTH 611 0
DWIDTH 11 0
BBX 9 16 1 0
BITMAP
2200
1C00
0800
0000
FF80
C180
8300
8600
0600
0C00
1800
1800
3080
6080
6180
FF80
ENDCHAR

STARTCHAR macron
ENCODING 175
SWIDTH 333 0
DWIDTH 6 0
BBX 6 1 0 9
BITMAP
FC
ENDCHAR

STARTCHAR degree
ENCODING 176
SWIDTH 400 0
DWIDTH 7 0
BBX 5 5 1 7
BITMAP
70
88
88
88
70
ENDCHAR

STARTCHAR aogonek
ENCODING 177
SWIDTH 556 0
DWIDTH 9 0
BBX 10 10 0 -2
BITMAP
7C00
C600
4600
3E00
4600
C600
C600
7B00
0300
01C0
ENDCHAR

STARTCHAR ogonek
ENCODING 178
SWIDTH 333 0
DWIDTH 6 0
BBX 4 2 1 -2
BITMAP
C0
70
ENDCHAR

STARTCHAR rcommaaccent
ENCODING 179
SWIDTH 444 0
DWIDTH 7 0
BBX 7 12 0 -4
BITMAP
EE
74
60
60
60
60
60
F0
00
60
60
C0
ENDCHAR

STARTCHAR acute
ENCODING 180
SWIDTH 333 0
DWIDTH 6 0
BBX 4 2 1 9
BITMAP
30
C0
ENDCHAR

STARTCHAR itilde
ENCODING 181
SWIDTH 315 0
DWIDTH 5 0
BBX 5 11 0 0
BITMAP
68
B0
00
E0
60
60
60
60
60
60
F0
ENDCHAR

STARTCHAR lcommaaccent
ENCODING 182
SWIDTH 315 0
DWIDTH 5 0
BBX 4 16 0 -4
BITMAP
E0
60
60
60
60
60
60
60
60
60
60
F0
00
60
60
C0
ENDCHAR

STARTCHAR caron
ENCODING 183
SWIDTH 333 0
DWIDTH 6 0
BBX 5 3 0 9
BITMAP
88
70
20
ENDCHAR

STARTCHAR commaaccent
ENCODING 184
SWIDTH 333 0
DWIDTH 6 0
BBX 3 3 1 -4
BITMAP
60
60
C0
ENDCHAR

STARTCHAR scaron
ENCODING 185
SWIDTH 463 0
DWIDTH 7 0
BBX 6 12 0 0
BITMAP
44
38
10
00
74
CC
C4
70
38
8C
CC
B8
ENDCHAR

STARTCHAR emacron
ENCODING 186
SWIDTH 500 0
DWIDTH 9 0
BBX 8 10 0 0
BITMAP
7E
00
3C
62
C3
FF
C0
C0
61
3E
ENDCHAR

STARTCHAR gcommaaccent
ENCODING 187
SWIDTH 537 0
DWIDTH 9 0
BBX 8 15 1 -3
BITMAP
08
10
10
00
7B
CD
CC
CC
CC
78
80
7C
FE
86
7C
ENDCHAR

STARTCHAR afii253
ENCODING 188
SWIDTH 278 0
DWIDTH 7 0
BBX 6 12 0 0
BITMAP
20
60
60
60
F8
60
60
F8
60
64
64
38
ENDCHAR

STARTCHAR afii238
ENCODING 189
SWIDTH 728 0
DWIDTH 12 0
BBX 11 12 1 0
BITMAP
E780
78C0
7060
6060
6060
6060
6060
6060
6060
6460
66C0
F380
ENDCHAR

STARTCHAR zcaron
ENCODING 190
SWIDTH 481 0
DWIDTH 8 0
BBX 7 12 0 0
BITMAP
44
38
10
00
FE
86
8C
18
30
62
C2
FE
ENDCHAR

STARTCHAR afii254
ENCODING 191
SWIDTH 512 0
DWIDTH 9 0
BBX 8 11 0 -3
BITMAP
EE
73
63
63
63
63
63
F3
03
1B
0E
ENDCHAR

STARTCHAR Amacron
ENCODING 192
SWIDTH 722 0
DWIDTH 12 0
BBX 12 14 0 0
BITMAP
0FC0
0000
0200
0700
0700
0B00
0980
1180
1180
3FC0
20C0
4060
4060
E0F0
ENDCHAR

STARTCHAR Aacute
ENCODING 193
SWIDTH 722 0
DWIDTH 12 0
BBX 12 15 0 0
BITMAP
0180
0600
0000
0200
0700
0700
0B00
0980
1180
1180
3FC0
20C0
4060
4060
E0F0
ENDCHAR

STARTCHAR Acircumflex
ENCODING 194
SWIDTH 722 0
DWIDTH 12 0
BBX 12 16 0 0
BITMAP
0200
0700
0880
0000
0200
0700
0700
0B00
0980
1180
1180
3FC0
20C0
4060
4060
E0F0
ENDCHAR

STARTCHAR Atilde
ENCODING 195
SWIDTH 722 0
DWIDTH 12 0
BBX 12 15 0 0
BITMAP
0680
0B00
0000
0200
0700
0700
0B00
0980
1180
1180
3FC0
20C0
4060
4060
E0F0
ENDCHAR

STARTCHAR Adieresis
ENCODING 196
SWIDTH 722 0
DWIDTH 12 0
BBX 12 15 0 0
BITMAP
0CC0
0CC0
0000
0200
0700
0700
0B00
0980
1180
1180
3FC0
20C0
4060
4060
E0F0
ENDCHAR

STARTCHAR Aring
ENCODING 197
SWIDTH 722 0
DWIDTH 12 0
BBX 12 16 0 0
BITMAP
0300
0480
0300
0000
0200
0700
0700
0B00
0980
1180
1180
3FC0
20C0
4060
4060
E0F0
ENDCHAR

STARTCHAR AE
ENCODING 198
SWIDTH 1000 0
DWIDTH 17 0
BBX 15 12 1 0
BITMAP
0FFE
0586
0582
0992
0990
11F0
1F90
2190
2182
4182
4186
E3FE
ENDCHAR

STARTCHAR Iogonek
ENCODING 199
SWIDTH 407 0
DWIDTH 6 0
BBX 4 14 1 -2
BITMAP
F0
60
60
60
60
60
60
60
60
60
60
F0
40
30
ENDCHAR

STARTCHAR Ccaron
ENCODING 200
SWIDTH 722 0
DWIDTH 12 0
BBX 10 16 1 0
BITMAP
1100
0E00
0400
0000
0F40
30C0
60C0
6040
C040
C000
C000
C000
6040
6040
3080
0F00
ENDCHAR

STARTCHAR Eacute
ENCODING 201
SWIDTH 722 0
DWIDTH 12 0
BBX 10 15 1 0
BITMAP
0300
0C00
0000
FFC0
60C0
6040
6440
6400
7C00
6400
6400
6040
6040
60C0
FFC0
ENDCHAR

STARTCHAR Eogonek
ENCODING 202
SWIDTH 722 0
DWIDTH 12 0
BBX 11 14 1 -2
BITMAP
FFC0
60C0
6040
6440
6400
7C00
6400
6400
6040
6040
60C0
FFC0
0180
00E0
ENDCHAR

STARTCHAR Edieresis
ENCODING 203
SWIDTH 722 0
DWIDTH 12 0
BBX 10 15 1 0
BITMAP
3300
3300
0000
FFC0
60C0
6040
6440
6400
7C00
6400
6400
6040
6040
60C0
FFC0
ENDCHAR

STARTCHAR Edotaccent
ENCODING 204
SWIDTH 722 0
DWIDTH 12 0
BBX 10 15 1 0
BITMAP
0C00
0C00
0000
FFC0
60C0
6040
6440
6400
7C00
6400
6400
6040
6040
60C0
FFC0
ENDCHAR

STARTCHAR Iacute
ENCODING 205
SWIDTH 407 0
DWIDTH 6 0
BBX 4 15 1 0
BITMAP
30
C0
00
F0
60
60
60
60
60
60
60
60
60
60
F0
ENDCHAR

STARTCHAR Icircumflex
ENCODING 206
SWIDTH 407 0
DWIDTH 6 0
BBX 5 16 1 0
BITMAP
20
70
88
00
F0
60
60
60
60
60
60
60
60
60
60
F0
ENDCHAR

STARTCHAR Imacron
ENCODING 207
SWIDTH 407 0
DWIDTH 6 0
BBX 6 14 0 0
BITMAP
FC
00
78
30
30
30
30
30
30
30
30
30
30
78
ENDCHAR

STARTCHAR Eth
ENCODING 208
SWIDTH 778 0
DWIDTH 13 0
BBX 11 12 1 0
BITMAP
FE00
6180
60C0
60C0
6060
FC60
6060
6060
60C0
60C0
6180
FE00
ENDCHAR

STARTCHAR Ncommaaccent
ENCODING 209
SWIDTH 815 0
DWIDTH 14 0
BBX 12 16 1 -4
BITMAP
E070
7020
5820
5820
4C20
4620
4620
4320
41A0
41A0
40E0
E060
0000
0C00
0C00
1800
ENDCHAR

STARTCHAR Omacron
ENCODING 210
SWIDTH 778 0
DWIDTH 13 0
BBX 11 14 1 0
BITMAP
1F80
0000
0E00
3180
60C0
60C0
C060
C060
C060
C060
60C0
60C0
3180
0E00
ENDCHAR

STARTCHAR Kcommaaccent
ENCODING 211
SWIDTH 778 0
DWIDTH 13 0
BBX 11 16 1 -4
BITMAP
F1E0
6080
6100
6200
6400
6800
7C00
7600
6300
6300
6180
F3E0
0000
0C00
0C00
1800
ENDCHAR

STARTCHAR Ocircumflex
ENCODING 212
SWIDTH 778 0
DWIDTH 13 0
BBX 11 16 1 0
BITMAP
0400
0E00
1100
0000
0E00
3180
60C0
60C0
C060
C060
C060
C060
60C0
60C0
3180
0E00
ENDCHAR

STARTCHAR Otilde
ENCODING 213
SWIDTH 778 0
DWIDTH 13 0
BBX 11 15 1 0
BITMAP
0D00
1600
0000
0E00
3180
60C0
60C0
C060
C060
C060
C060
60C0
60C0
3180
0E00
ENDCHAR

STARTCHAR Odieresis
ENCODING 214
SWIDTH 778 0
DWIDTH 13 0
BBX 11 15 1 0
BITMAP
1980
1980
0000
0E00
3180
60C0
60C0
C060
C060
C060
C060
60C0
60C0
3180
0E00
ENDCHAR

STARTCHAR multiply
ENCODING 215
SWIDTH 606 0
DWIDTH 10 0
BBX 7 8 2 2
BITMAP
82
C6
6C
38
38
6C
C6
82
ENDCHAR

STARTCHAR Oslash
ENCODING 216
SWIDTH 778 0
DWIDTH 13 0
BBX 11 12 1 0
BITMAP
0E40
3180
61C0
62C0
C260
C460
C460
C860
68C0
70C0
3180
4E00
ENDCHAR

STARTCHAR Uogonek
ENCODING 217
SWIDTH 815 0
DWIDTH 14 0
BBX 12 14 1 -2
BITMAP
F070
6020
6020
6020
6020
6020
6020
6020
6020
6020
3040
1F80
0600
0380
ENDCHAR

STARTCHAR Uacute
ENCODING 218
SWIDTH 815 0
DWIDTH 14 0
BBX 12 15 1 0
BITMAP
0180
0600
0000
F070
6020
6020
6020
6020
6020
6020
6020
6020
6020
3040
1F80
ENDCHAR

STARTCHAR Ucircumflex
ENCODING 219
SWIDTH 815 0
DWIDTH 14 0
BBX 12 16 1 0
BITMAP
0200
0700
0880
0000
F070
6020
6020
6020
6020
6020
6020
6020
6020
6020
3040
1F80
ENDCHAR

STARTCHAR Udieresis
ENCODING 220
SWIDTH 815 0
DWIDTH 14 0
BBX 12 15 1 0
BITMAP
0CC0
0CC0
0000
F070
6020
6020
6020
6020
6020
6020
6020
6020
6020
3040
1F80
ENDCHAR

STARTCHAR Utilde
ENCODING 221
SWIDTH 815 0
DWIDTH 14 0
BBX 12 15 1 0
BITMAP
0680
0B00
0000
F070
6020
6020
6020
6020
6020
6020
6020
6020
6020
3040
1F80
ENDCHAR

STARTCHAR Umacron
ENCODING 222
SWIDTH 815 0
DWIDTH 14 0
BBX 12 14 1 0
BITMAP
0FC0
0000
F070
6020
6020
6020
6020
6020
6020
6020
6020
6020
3040
1F80
ENDCHAR

STARTCHAR germandbls
ENCODING 223
SWIDTH 574 0
DWIDTH 10 0
BBX 8 12 1 0
BITMAP
3C
66
66
66
6C
62
63
63
63
63
62
EC
ENDCHAR

STARTCHAR amacron
ENCODING 224
SWIDTH 556 0
DWIDTH 9 0
BBX 8 10 0 0
BITMAP
7E
00
7C
C6
46
3E
46
C6
C6
7B
ENDCHAR

STARTCHAR aacute
ENCODING 225
SWIDTH 556 0
DWIDTH 9 0
BBX 8 11 0 0
BITMAP
0C
30
00
7C
C6
46
3E
46
C6
C6
7B
ENDCHAR

STARTCHAR acircumflex
ENCODING 226
SWIDTH 556 0
DWIDTH 9 0
BBX 8 12 0 0
BITMAP
10
38
44
00
7C
C6
46
3E
46
C6
C6
7B
ENDCHAR

STARTCHAR atilde
ENCODING 227
SWIDTH 556 0
DWIDTH 9 0
BBX 8 11 0 0
BITMAP
34
58
00
7C
C6
46
3E
46
C6
C6
7B
ENDCHAR

STARTCHAR adieresis
ENCODING 228
SWIDTH 556 0
DWIDTH 9 0
BBX 8 11 0 0
BITMAP
66
66
00
7C
C6
46
3E
46
C6
C6
7B
ENDCHAR

STARTCHAR aring
ENCODING 229
SWIDTH 556 0
DWIDTH 9 0
BBX 8 12 0 0
BITMAP
18
24
18
00
7C
C6
46
3E
46
C6
C6
7B
ENDCHAR

STARTCHAR ae
ENCODING 230
SWIDTH 796 0
DWIDTH 14 0
BBX 13 8 1 0
BITMAP
78E0
C590
4718
3FF8
4700
C700
C588
78F0
ENDCHAR

STARTCHAR iogonek
ENCODING 231
SWIDTH 315 0
DWIDTH 5 0
BBX 5 14 0 -2
BITMAP
60
60
00
00
E0
60
60
60
60
60
60
F0
60
38
ENDCHAR

STARTCHAR ccaron
ENCODING 232
SWIDTH 444 0
DWIDTH 8 0
BBX 7 12 0 0
BITMAP
44
38
10
00
3C
66
C4
C0
C0
C2
62
3C
ENDCHAR

STARTCHAR eacute
ENCODING 233
SWIDTH 500 0
DWIDTH 9 0
BBX 8 11 0 0
BITMAP
0C
30
00
3C
62
C3
FF
C0
C0
61
3E
ENDCHAR

STARTCHAR eogonek
ENCODING 234
SWIDTH 500 0
DWIDTH 9 0
BBX 8 10 0 -2
BITMAP
3C
62
C3
FF
C0
C0
61
3E
0C
07
ENDCHAR

STARTCHAR edieresis
ENCODING 235
SWIDTH 500 0
DWIDTH 9 0
BBX 8 11 0 0
BITMAP
33
33
00
3C
62
C3
FF
C0
C0
61
3E
ENDCHAR

STARTCHAR edotaccent
ENCODING 236
SWIDTH 500 0
DWIDTH 9 0
BBX 8 11 0 0
BITMAP
18
18
00
3C
62
C3
FF
C0
C0
61
3E
ENDCHAR

STARTCHAR iacute
ENCODING 237
SWIDTH 315 0
DWIDTH 5 0
BBX 4 11 0 0
BITMAP
30
C0
00
E0
60
60
60
60
60
60
F0
ENDCHAR

STARTCHAR icircumflex
ENCODING 238
SWIDTH 315 0
DWIDTH 5 0
BBX 5 12 0 0
BITMAP
20
70
88
00
E0
60
60
60
60
60
60
F0
ENDCHAR

STARTCHAR imacron
ENCODING 239
SWIDTH 315 0
DWIDTH 5 0
BBX 6 10 -1 0
BITMAP
FC
00
70
30
30
30
30
30
30
78
ENDCHAR

STARTCHAR dcroat
ENCODING 240
SWIDTH 574 0
DWIDTH 10 0
BBX 9 12 0 0
BITMAP
0700
0300
0F80
0300
3B00
6700
C300
C300
C300
C300
6700
3980
ENDCHAR

STARTCHAR ncommaaccent
ENCODING 241
SWIDTH 611 0
DWIDTH 10 0
BBX 9 12 0 -4
BITMAP
EE00
7300
6300
6300
6300
6300
6300
F780
0000
1800
1800
3000
ENDCHAR

STARTCHAR omacron
ENCODING 242
SWIDTH 500 0
DWIDTH 9 0
BBX 8 10 0 0
BITMAP
7E
00
3C
66
C3
C3
C3
C3
66
3C
ENDCHAR

STARTCHAR kcommaaccent
ENCODING 243
SWIDTH 593 0
DWIDTH 10 0
BBX 10 16 0 -4
BITMAP
E000
6000
6000
6000
6780
6200
6400
6C00
7C00
6600
6300
F7C0
0000
1800
1800
3000
ENDCHAR

STARTCHAR ocircumflex
ENCODING 244
SWIDTH 500 0
DWIDTH 9 0
BBX 8 12 0 0
BITMAP
08
1C
22
00
3C
66
C3
C3
C3
C3
66
3C
ENDCHAR

STARTCHAR otilde
ENCODING 245
SWIDTH 500 0
DWIDTH 9 0
BBX 8 11 0 0
BITMAP
1A
2C
00
3C
66
C3
C3
C3
C3
66
3C
ENDCHAR

STARTCHAR odieresis
ENCODING 246
SWIDTH 500 0
DWIDTH 9 0
BBX 8 11 0 0
BITMAP
66
66
00
3C
66
C3
C3
C3
C3
66
3C
ENDCHAR

STARTCHAR divide
ENCODING 247
SWIDTH 606 0
DWIDTH 10 0
BBX 8 9 1 1
BITMAP
18
18
00
00
FF
00
00
18
18
ENDCHAR

STARTCHAR oslash
ENCODING 248
SWIDTH 500 0
DWIDTH 9 0
BBX 8 8 0 0
BITMAP
3D
66
C7
CB
CB
D3
66
BC
ENDCHAR

STARTCHAR uogonek
ENCODING 249
SWIDTH 611 0
DWIDTH 10 0
BBX 10 10 0 -2
BITMAP
E700
6300
6300
6300
6300
6300
6700
3B80
0300
01C0
ENDCHAR

STARTCHAR uacute
ENCODING 250
SWIDTH 611 0
DWIDTH 10 0
BBX 9 11 0 0
BITMAP
0600
1800
0000
E700
6300
6300
6300
6300
6300
6700
3B80
ENDCHAR

STARTCHAR ucircumflex
ENCODING 251
SWIDTH 611 0
DWIDTH 10 0
BBX 9 12 0 0
BITMAP
0800
1C00
2200
0000
E700
6300
6300
6300
6300
6300
6700
3B80
ENDCHAR

STARTCHAR udieresis
ENCODING 252
SWIDTH 611 0
DWIDTH 10 0
BBX 9 11 0 0
BITMAP
3300
3300
0000
E700
6300
6300
6300
6300
6300
6700
3B80
ENDCHAR

STARTCHAR utilde
ENCODING 253
SWIDTH 611 0
DWIDTH 10 0
BBX 9 11 0 0
BITMAP
1A00
2C00
0000
E700
6300
6300
6300
6300
6300
6700
3B80
ENDCHAR

STARTCHAR umacron
ENCODING 254
SWIDTH 611 0
DWIDTH 10 0
BBX 9 10 0 0
BITMAP
3F00
0000
E700
6300
6300
6300
6300
6300
6700
3B80
ENDCHAR

STARTCHAR dotaccent
ENCODING 255
SWIDTH 333 0
DWIDTH 6 0
BBX 2 2 2 9
BITMAP
C0
C0
ENDCHAR
ENDFONT
